:SAMPLES-PER-SECOND 30
:FULLY-SPECIFIED
:DEGREES
490
root  -29.5284 41.1319 -31.4335 -32.6235 -84.525 30.5952
RightUpLeg  0.415966 -9.25215 -7.76584
RightLeg  11.614 -0.257242 0.930563
RightFoot  -10.3015 -0.0730907 0.372526
RightToes  0.000482159 0.542163 -0.142577
Spine  4.50811 0.274633 -0.910579
Spine1  7.55824 1.12654 -2.9495
HEad  -9.38979 -11.2728 1.41722
LeftShoulder1  6.7618 -10.6919 -41.2945
LeftArm  -11.6785 19.7284 -23.2866
LeftForeArm  24.6575 -16.6958 -3.76214
LeftHand  -0.25398 0.0180481 5.50724
RightShoulder  5.67851 9.56404 37.431
RightArm  -9.93778 -15.7836 31.3115
RightForeArm  1.37765 14.9284 5.65154
RightHand  -2.11642 6.14276 -21.4591
LeftUpLeg  -0.222435 3.07233 -1.79955
LeftLeg  3.0005 4.96574 -5.20462
LeftFoot  -4.08379 0.148283 -1.97267
LeftToes  1.06247e-005 4.65855e-005 -8.18501e-006
491
root  -29.379 41.1526 -31.3319 -38.1035 -85.2696 36.3849
RightUpLeg  -0.203528 -9.27346 -7.94602
RightLeg  11.4002 0.263861 1.04173
RightFoot  -10.021 -0.0776534 0.845774
RightToes  0.000482159 0.542163 -0.142577
Spine  3.9452 0.176485 -1.59816
Spine1  7.58909 0.776422 -2.03211
HEad  -10.1643 -10.9507 1.48701
LeftShoulder1  6.16321 -10.1917 -38.8016
LeftArm  -12.8653 17.8017 -20.5629
LeftForeArm  24.372 -16.1181 -3.63848
LeftHand  -0.25398 0.0180481 5.50724
RightShoulder  5.26947 9.22644 35.4185
RightArm  -15.124 -13.6371 28.2341
RightForeArm  2.66918 11.5063 5.2046
RightHand  -2.35583 7.0829 -22.08
LeftUpLeg  -0.314499 3.16192 -1.77572
LeftLeg  2.22889 5.61383 -5.51316
LeftFoot  -3.85475 0.18803 -2.63253
LeftToes  1.06247e-005 4.65855e-005 -8.18501e-006
492
root  -29.2108 41.1548 -31.258 -40.6906 -85.624 39.2087
RightUpLeg  -0.811546 -9.24549 -7.95974
RightLeg  11.3678 0.393818 1.07383
RightFoot  -9.59843 -0.0800705 1.02512
RightToes  0.000482159 0.542163 -0.142577
Spine  3.95491 -0.0319863 -2.29814
Spine1  6.89828 0.286861 -1.05122
HEad  -10.5447 -10.7011 1.61398
LeftShoulder1  5.48006 -9.58643 -35.7688
LeftArm  -14.0577 15.902 -17.3941
LeftForeArm  23.7958 -14.6059 -3.53119
LeftHand  -0.25398 0.0180481 5.50724
RightShoulder  4.67964 8.59008 32.7492
RightArm  -19.6133 -11.703 25.3186
RightForeArm  1.49978 9.25204 4.15828
RightHand  -2.46217 7.49876 -22.3263
LeftUpLeg  -0.783558 2.86342 -2.05279
LeftLeg  2.05683 6.25867 -5.33764
LeftFoot  -3.27421 0.124243 -1.68126
LeftToes  1.06247e-005 4.65855e-005 -8.18501e-006
493
root  -29.0313 41.1539 -31.1833 -43.2883 -85.9423 41.7966
RightUpLeg  -1.17659 -9.06101 -7.91151
RightLeg  11.2775 0.533983 1.04638
RightFoot  -8.95567 -0.0738494 0.996352
RightToes  0.000482159 0.542163 -0.142577
Spine  4.69031 -0.080948 -2.42555
Spine1  5.5403 0.1262 -0.742647
HEad  -10.7011 -11.0738 1.93238
LeftShoulder1  4.79777 -9.00584 -32.3019
LeftArm  -15.3063 13.937 -13.996
LeftForeArm  22.6427 -12.5828 -3.32351
LeftHand  -0.25398 0.0180481 5.50724
RightShoulder  4.07194 7.82765 29.9725
RightArm  -22.8356 -10.5034 21.9637
RightForeArm  -2.25966 8.74899 3.43652
RightHand  -2.47993 7.4965 -22.4834
LeftUpLeg  -1.12804 2.56174 -2.35804
LeftLeg  2.02349 7.04464 -5.09851
LeftFoot  -2.58105 0.0406744 -0.408102
LeftToes  1.06247e-005 4.65855e-005 -8.18501e-006
494
root  -28.8747 41.1596 -31.1015 -46.9318 -86.2462 45.3398
RightUpLeg  -1.34988 -9.00229 -7.97151
RightLeg  11.0592 0.87932 1.12053
RightFoot  -8.21317 -0.0630062 0.863483
RightToes  0.000482159 0.542163 -0.142577
Spine  5.4283 0.0275797 -2.11847
Spine1  4.27574 0.269212 -0.963862
HEad  -10.696 -11.8297 2.21693
LeftShoulder1  4.18606 -8.55648 -28.618
LeftArm  -16.7124 12.0475 -10.6687
LeftForeArm  20.723 -10.8247 -2.9184
LeftHand  -0.25398 0.0180481 5.50724
RightShoulder  3.49641 7.0195 27.1893
RightArm  -24.8852 -9.64123 18.1726
RightForeArm  -6.19524 9.20344 3.20159
RightHand  -2.54993 7.63022 -22.8638
LeftUpLeg  -1.27077 2.48521 -2.48868
LeftLeg  1.96086 7.67615 -5.07427
LeftFoot  -2.15377 0.0196612 -0.0739442
LeftToes  1.06247e-005 4.65855e-005 -8.18501e-006
